# xmcd CD database file
#
# Track frame offsets:
#	183
#	12805
#	37053
#	48303
#	64505
#	74508
#	89698
#	104273
#	115663
#	136408
#	147145
#	157655
#	171278
#	185320
#	199735
#	220190
#	239050
#
# Disc length: 3335 seconds
#
# Revision: 0
# Processed by: cddbd v1.5.2PL0 Copyright (c) Steve Scherf et al.
# Submitted via: CDex 1.70beta2
#
DISCID=f00d0511
DTITLE=Les Westerners - gRANDS SUCC7S
DYEAR=1987
DGENRE=Country
TTITLE0=Oh Susanna
TTITLE1=My darling Clementine
TTITLE2=Pat works on the railway
TTITLE3=Home on the range
TTITLE4=Tom Dooley
TTITLE5=You are my sunshine
TTITLE6=Skip to my Lou
TTITLE7=Polly wolly doodle
TTITLE8=Red river valley
TTITLE9=Campton races
TTITLE10=Yankee doodle
TTITLE11=She'll be commin' round the mountain
TTITLE12=Country roads
TTITLE13=Divorce me COD
TTITLE14=Orange blossom special
TTITLE15=Kentucky hills of Tennessee
TTITLE16=Di gui di gui lo
EXTD=YEAR: 1987
EXTT0=
EXTT1=
EXTT2=
EXTT3=
EXTT4=
EXTT5=
EXTT6=
EXTT7=
EXTT8=
EXTT9=
EXTT10=
EXTT11=
EXTT12=
EXTT13=
EXTT14=
EXTT15=
EXTT16=
PLAYORDER=
